<svg xmlns="http://www.w3.org/2000/svg" xmlns:xlink="http://www.w3.org/1999/xlink" version="1.1" width="256" height="256" viewBox="0 0 256 256" xml:space="preserve">

<defs>
</defs>
<g style="stroke: none; stroke-width: 0; stroke-dasharray: none; stroke-linecap: butt; stroke-linejoin: miter; stroke-miterlimit: 10; fill: none; fill-rule: nonzero; opacity: 1;" transform="translate(1.4065934065934016 1.4065934065934016) scale(2.81 2.81)" >
	<path d="M 80.116 45.805 c -2.318 0 -4.312 1.398 -5.194 3.393 l -14.931 -3.612 c 0.131 -0.777 0.215 -1.57 0.215 -2.384 c 0 -3.462 -1.235 -6.641 -3.287 -9.121 l 18.33 -19.499 c 1.334 0.976 2.973 1.559 4.749 1.559 c 4.45 0 8.071 -3.621 8.071 -8.071 S 84.449 0 79.999 0 s -8.07 3.621 -8.07 8.071 c 0 1.955 0.699 3.749 1.86 5.147 l -18.26 19.424 c -2.549 -2.332 -5.931 -3.768 -9.65 -3.768 c -3.563 0 -6.82 1.316 -9.329 3.477 L 21.709 17.35 c 0.653 -0.925 1.041 -2.05 1.041 -3.266 c 0 -3.131 -2.547 -5.678 -5.678 -5.678 s -5.678 2.547 -5.678 5.678 s 2.547 5.678 5.678 5.678 c 1.194 0 2.302 -0.372 3.217 -1.005 L 35.131 33.76 c -2.22 2.525 -3.579 5.824 -3.579 9.443 c 0 2.553 0.679 4.946 1.854 7.024 L 16.13 61.613 c -1.481 -1.731 -3.677 -2.833 -6.129 -2.833 c -4.45 0 -8.071 3.62 -8.071 8.07 s 3.621 8.071 8.071 8.071 s 8.071 -3.621 8.071 -8.071 c 0 -1.281 -0.308 -2.49 -0.842 -3.567 l 17.283 -11.392 c 2.621 3.42 6.734 5.639 11.366 5.639 c 1.639 0 3.208 -0.29 4.676 -0.799 l 5.693 15.815 c -3.053 1.499 -5.164 4.631 -5.164 8.254 c 0 5.072 4.127 9.199 9.199 9.199 s 9.198 -4.127 9.198 -9.199 s -4.126 -9.199 -9.198 -9.199 c -0.743 0 -1.462 0.098 -2.155 0.265 l -5.731 -15.921 c 3.37 -1.731 5.973 -4.75 7.137 -8.412 l 14.922 3.609 c -0.007 0.113 -0.017 0.226 -0.017 0.341 c 0 3.131 2.547 5.679 5.678 5.679 s 5.679 -2.548 5.679 -5.679 S 83.247 45.805 80.116 45.805 z M 10.001 72.921 c -3.348 0 -6.071 -2.724 -6.071 -6.071 s 2.723 -6.07 6.071 -6.07 s 6.071 2.723 6.071 6.07 S 13.349 72.921 10.001 72.921 z M 67.481 80.801 c 0 3.97 -3.229 7.199 -7.198 7.199 c -3.97 0 -7.199 -3.229 -7.199 -7.199 s 3.229 -7.199 7.199 -7.199 C 64.252 73.602 67.481 76.831 67.481 80.801 z M 79.999 2 c 3.348 0 6.071 2.723 6.071 6.071 s -2.724 6.071 -6.071 6.071 s -6.07 -2.723 -6.07 -6.071 S 76.651 2 79.999 2 z M 13.394 14.084 c 0 -2.028 1.65 -3.678 3.678 -3.678 s 3.678 1.65 3.678 3.678 s -1.65 3.678 -3.678 3.678 S 13.394 16.112 13.394 14.084 z M 45.879 55.53 c -6.797 0 -12.328 -5.53 -12.328 -12.328 s 5.53 -12.328 12.328 -12.328 c 6.798 0 12.328 5.53 12.328 12.328 S 52.677 55.53 45.879 55.53 z M 80.116 55.162 c -2.028 0 -3.678 -1.65 -3.678 -3.679 s 1.649 -3.679 3.678 -3.679 s 3.679 1.65 3.679 3.679 S 82.145 55.162 80.116 55.162 z" style="stroke: none; stroke-width: 1; stroke-dasharray: none; stroke-linecap: butt; stroke-linejoin: miter; stroke-miterlimit: 10; fill: rgb(0,0,0); fill-rule: nonzero; opacity: 1;" transform=" matrix(1 0 0 1 0 0) " stroke-linecap="round" />
</g>
</svg>